<svg width="1024" height="1024" viewBox="0 0 1024 1024" fill="none" xmlns="http://www.w3.org/2000/svg">
<ellipse cx="448.415" cy="449.087" rx="440.737" ry="123.701" transform="rotate(-27.2791 448.415 449.087)" fill="white"/>
<ellipse cx="597.866" cy="674.015" rx="292.873" ry="88.448" transform="rotate(-27.2791 597.866 674.015)" fill="white"/>
<path d="M835.98 789.878V752.523H854.299C861.169 752.523 867.18 756.96 867.18 764.831C867.18 769.841 864.747 773.49 861.312 775.565L868.325 789.878H857.734L852.009 777.426H845.569V789.878H835.98ZM850.578 812.205C828.251 812.205 810.074 794.028 810.074 771.701C810.074 749.374 828.251 731.197 850.578 731.197C872.905 731.197 891.082 749.374 891.082 771.701C891.082 794.028 873.048 812.205 850.578 812.205ZM850.578 801.471C867.18 801.471 880.491 788.16 880.491 771.701C880.491 755.242 867.037 741.789 850.578 741.789C834.119 741.789 820.809 755.242 820.809 771.701C820.809 788.16 834.119 801.471 850.578 801.471ZM845.569 770.413H851.723C854.586 770.413 857.019 768.552 857.019 764.831C857.019 761.11 854.586 759.679 851.866 759.679H845.569V770.413Z" fill="white"/>
</svg>
