<svg width="843" height="177" viewBox="0 0 843 177" fill="none" xmlns="http://www.w3.org/2000/svg">
<g clip-path="url(#clip0_6_14)">
<path d="M697.248 133.136V49H764.824C772.521 49 779.192 49.9103 784.836 51.7308C790.583 53.4647 795.047 56.2389 798.228 60.0534C801.409 63.7812 803 68.5926 803 74.4878C803 78.4757 802.179 81.8567 800.537 84.6309C798.895 87.4051 796.586 89.6591 793.61 91.393C790.737 93.1268 787.401 94.4706 783.604 95.4242C779.807 96.2911 775.754 96.8546 771.444 97.1147L769.289 96.0744C776.472 96.1611 782.373 96.6812 786.991 97.6349C791.609 98.5018 795.047 100.149 797.304 102.576C799.665 104.917 800.845 108.428 800.845 113.11V133.136H780.372V114.28C780.372 111.072 779.705 108.602 778.371 106.868C777.037 105.047 774.625 103.79 771.136 103.097C767.749 102.403 762.823 102.056 756.358 102.056H717.721V133.136H697.248ZM717.721 88.5321H764.824C770.571 88.5321 774.933 87.3617 777.909 85.021C780.988 82.6803 782.527 79.516 782.527 75.5281C782.527 71.7136 780.988 68.8094 777.909 66.8154C774.933 64.8215 770.571 63.8245 764.824 63.8245H717.721V88.5321Z" fill="white"/>
<path d="M613.268 98.025V118.701H690.081V133.136H592.795V49H689.927V63.4344H613.268V84.3708H676.073V98.025H613.268Z" fill="white"/>
<path d="M503.64 105.827V92.0432H549.204C554.643 92.0432 558.953 90.8294 562.135 88.402C565.316 85.8879 566.907 82.4202 566.907 77.9989C566.907 73.4041 565.316 69.8931 562.135 67.4656C558.953 65.0382 554.643 63.8245 549.204 63.8245H506.103V133.136H485.63V49H547.357C552.899 49 558.081 49.5635 562.904 50.6905C567.83 51.8175 572.089 53.5514 575.681 55.8921C579.375 58.2328 582.249 61.2237 584.301 64.8648C586.354 68.506 587.38 72.884 587.38 77.9989C587.38 83.0271 586.354 87.3184 584.301 90.8728C582.249 94.4272 579.375 97.3314 575.681 99.5855C572.089 101.753 567.83 103.357 562.904 104.397C558.081 105.351 552.899 105.827 547.357 105.827H503.64Z" fill="white"/>
<path d="M484.978 49L441.261 106.608V133.136H420.633V106.608L376.916 49H400.622L437.412 99.3254H425.098L461.272 49H484.978Z" fill="white"/>
<path d="M280.01 83.7206H358.978V98.155H280.01V83.7206ZM355.592 49H376.065V133.136H355.592V49ZM262 49H282.473V133.136H262V49Z" fill="white"/>
<ellipse cx="108.288" cy="75.3317" rx="106.434" ry="29.8726" transform="rotate(-27.2791 108.288 75.3317)" fill="white"/>
<ellipse cx="144.379" cy="129.65" rx="70.7261" ry="21.3594" transform="rotate(-27.2791 144.379 129.65)" fill="white"/>
<path d="M201.882 157.63V148.609H206.306C207.965 148.609 209.416 149.68 209.416 151.581C209.416 152.791 208.829 153.672 207.999 154.173L209.693 157.63H207.135L205.753 154.623H204.197V157.63H201.882ZM205.407 163.021C200.015 163.021 195.626 158.632 195.626 153.24C195.626 147.848 200.015 143.459 205.407 143.459C210.799 143.459 215.188 147.848 215.188 153.24C215.188 158.632 210.833 163.021 205.407 163.021ZM205.407 160.429C209.416 160.429 212.631 157.215 212.631 153.24C212.631 149.265 209.382 146.016 205.407 146.016C201.432 146.016 198.218 149.265 198.218 153.24C198.218 157.215 201.432 160.429 205.407 160.429ZM204.197 152.929H205.683C206.375 152.929 206.962 152.48 206.962 151.581C206.962 150.682 206.375 150.337 205.718 150.337H204.197V152.929Z" fill="white"/>
</g>
<defs>
<clipPath id="clip0_6_14">
<rect width="850" height="177" fill="white"/>
</clipPath>
</defs>
</svg>
